<?xml version="1.0" standalone="no"?>
<!DOCTYPE svg PUBLIC "-//W3C//DTD SVG 20010904//EN"
 "http://www.w3.org/TR/2001/REC-SVG-20010904/DTD/svg10.dtd">
<svg version="1.0" xmlns="http://www.w3.org/2000/svg"
 width="300.000000pt" height="300.000000pt" viewBox="0 0 300.000000 300.000000"
 preserveAspectRatio="xMidYMid meet">
<metadata>
Created by potrace 1.13, written by Peter Selinger 2001-2015
</metadata>
<g transform="translate(0.000000,300.000000) scale(0.100000,-0.100000)"
fill="#2c3e50" stroke="none">
<path d="M1220 2954 c-47 -9 -132 -31 -190 -50 -380 -126 -689 -393 -864 -749
-118 -238 -150 -382 -150 -665 1 -216 10 -280 69 -456 73 -221 191 -410 360
-579 207 -209 457 -344 748 -407 148 -32 438 -32 583 0 465 101 827 380 1036
797 58 114 113 286 134 412 21 130 20 361 -1 489 -31 187 -124 421 -228 574
-208 306 -512 519 -879 616 -94 24 -122 27 -318 30 -161 2 -236 -1 -300 -12z
m406 -45 c482 -48 901 -333 1118 -758 63 -123 107 -244 130 -354 79 -384 5
-769 -210 -1088 -403 -601 -1198 -802 -1837 -466 -377 199 -642 554 -734 987
-26 121 -25 420 1 540 65 299 184 520 395 731 213 212 465 344 751 393 161 27
235 30 386 15z"/>
<path d="M462 2328 c-15 -15 -17 -1634 -2 -1658 8 -13 62 -15 365 -18 239 -2
362 1 375 8 19 10 20 21 20 370 0 263 3 361 12 366 11 7 81 -63 165 -167 48
-59 68 -72 91 -60 9 5 60 59 112 120 52 61 100 111 107 111 10 0 13 -75 13
-357 0 -208 4 -364 10 -373 8 -13 62 -15 369 -18 352 -3 361 -2 381 18 20 20
20 25 18 836 -3 711 -5 816 -18 824 -20 13 -696 13 -719 0 -10 -5 -72 -71
-138 -147 -66 -76 -127 -144 -135 -151 -20 -16 -30 -7 -163 148 -59 69 -116
133 -127 143 -18 15 -51 17 -372 17 -260 0 -355 -3 -364 -12z"/>
</g>
</svg>
